<svg height="766" width="720" xmlns="http://www.w3.org/2000/svg">
<rect height="766" fill="#555" width="720"></rect>
<text fill="#7f7" font-family="Courier New" font-size="12" xml:space="preserve">
<tspan x="10" y="26">2 megabytes installed</tspan>
<tspan x="10" y="42"></tspan>
<tspan x="10" y="58">node_modules</tspan>
<tspan x="10" y="74">└─┬ meow@3.7.0 </tspan>
<tspan x="10" y="90">  ├─┬ camelcase-keys@2.1.0 </tspan>
<tspan x="10" y="106">  │ └── camelcase@2.1.1 </tspan>
<tspan x="10" y="122">  ├── decamelize@1.2.0 </tspan>
<tspan x="10" y="138">  ├─┬ loud-rejection@1.6.0 </tspan>
<tspan x="10" y="154">  │ ├─┬ currently-unhandled@0.4.1 </tspan>
<tspan x="10" y="170">  │ │ └── array-find-index@1.0.2 </tspan>
<tspan x="10" y="186">  │ └── signal-exit@3.0.2 </tspan>
<tspan x="10" y="202">  ├── map-obj@1.0.1 </tspan>
<tspan x="10" y="218">  ├── minimist@1.2.0 </tspan>
<tspan x="10" y="234">  ├─┬ normalize-package-data@2.3.6 </tspan>
<tspan x="10" y="250">  │ ├── hosted-git-info@2.4.2 </tspan>
<tspan x="10" y="266">  │ ├─┬ is-builtin-module@1.0.0 </tspan>
<tspan x="10" y="282">  │ │ └── builtin-modules@1.1.1 </tspan>
<tspan x="10" y="298">  │ ├── semver@5.3.0 </tspan>
<tspan x="10" y="314">  │ └─┬ validate-npm-package-license@3.0.1 </tspan>
<tspan x="10" y="330">  │   ├─┬ spdx-correct@1.0.2 </tspan>
<tspan x="10" y="346">  │   │ └── spdx-license-ids@1.2.2 </tspan>
<tspan x="10" y="362">  │   └── spdx-expression-parse@1.0.4 </tspan>
<tspan x="10" y="378">  ├── object-assign@4.1.1 </tspan>
<tspan x="10" y="394">  ├─┬ read-pkg-up@1.0.1 </tspan>
<tspan x="10" y="410">  │ ├─┬ find-up@1.1.2 </tspan>
<tspan x="10" y="426">  │ │ ├── path-exists@2.1.0 </tspan>
<tspan x="10" y="442">  │ │ └─┬ pinkie-promise@2.0.1 </tspan>
<tspan x="10" y="458">  │ │   └── pinkie@2.0.4 </tspan>
<tspan x="10" y="474">  │ └─┬ read-pkg@1.1.0 </tspan>
<tspan x="10" y="490">  │   ├─┬ load-json-file@1.1.0 </tspan>
<tspan x="10" y="506">  │   │ ├── graceful-fs@4.1.11 </tspan>
<tspan x="10" y="522">  │   │ ├─┬ parse-json@2.2.0 </tspan>
<tspan x="10" y="538">  │   │ │ └─┬ error-ex@1.3.1 </tspan>
<tspan x="10" y="554">  │   │ │   └── is-arrayish@0.2.1 </tspan>
<tspan x="10" y="570">  │   │ ├── pify@2.3.0 </tspan>
<tspan x="10" y="586">  │   │ └─┬ strip-bom@2.0.0 </tspan>
<tspan x="10" y="602">  │   │   └── is-utf8@0.2.1 </tspan>
<tspan x="10" y="618">  │   └── path-type@1.1.0 </tspan>
<tspan x="10" y="634">  ├─┬ redent@1.0.0 </tspan>
<tspan x="10" y="650">  │ ├─┬ indent-string@2.1.0 </tspan>
<tspan x="10" y="666">  │ │ └─┬ repeating@2.0.1 </tspan>
<tspan x="10" y="682">  │ │   └─┬ is-finite@1.0.2 </tspan>
<tspan x="10" y="698">  │ │     └── number-is-nan@1.0.1 </tspan>
<tspan x="10" y="714">  │ └─┬ strip-indent@1.0.1 </tspan>
<tspan x="10" y="730">  │   └── get-stdin@4.0.1 </tspan>
<tspan x="10" y="746">  └── trim-newlines@1.0.0</tspan>
</text>
</svg>
